<?xml version="1.0" encoding="utf-8"?>
<!-- Generator: Adobe Illustrator 23.0.3, SVG Export Plug-In . SVG Version: 6.00 Build 0)  -->
<svg version="1.1" id="Layer_1" xmlns="http://www.w3.org/2000/svg" xmlns:xlink="http://www.w3.org/1999/xlink" x="0px" y="0px"
	 viewBox="0 0 308.3 321.6" style="enable-background:new 0 0 308.3 321.6;" xml:space="preserve">
<style type="text/css">
	.st0{fill:none;}
	.st1{fill:#FFA3A7;}
	.st2{fill:#FFFFFF;}
	.st3{font-family:'NexaBold';}
	.st4{font-size:32.4274px;}
</style>
<g id="Background">
</g>
<path class="st0" d="M193.3-115.4c0,0.2,0,0.3,0,0.5c0,0.3,0.1,0.7,0.1,1c0,0.2,0.1,0.5,0.1,0.7s0.1,0.3,0.1,0.5s0.1,0.4,0.1,0.6
	c0.1,0.3,0.1,0.5,0.2,0.8c0.1,0.2,0.1,0.4,0.2,0.6c0.1,0.2,0.1,0.4,0.2,0.6c0,0.1,0.1,0.2,0.1,0.2c0.1,0.2,0.1,0.4,0.2,0.6l0,0
	c0.1,0.1,0.1,0.3,0.2,0.4c0,0,0,0,0,0.1c0.1,0.1,0.1,0.3,0.2,0.4c0.2,0.4,0.3,0.8,0.5,1.1l3.9-3.9l0.1-0.1l3.8-3.8l0.5-0.5
	l12.6-12.6l4.3-4.3l4-4c-2.9-1.4-6.2-2.2-9.5-2.2c-5.8,0-11.3,2.3-15.4,6.4c-0.2,0.2-0.4,0.4-0.5,0.6c-0.1,0.1-0.2,0.2-0.3,0.3
	s-0.2,0.2-0.3,0.3c-0.2,0.2-0.3,0.4-0.4,0.5c-0.1,0.1-0.2,0.2-0.3,0.3l-0.1,0.1c-0.1,0.2-0.3,0.3-0.4,0.5c-0.1,0.2-0.3,0.4-0.4,0.6
	c-0.1,0.1-0.1,0.2-0.2,0.3c0,0,0,0.1-0.1,0.1c-0.1,0.1-0.2,0.2-0.2,0.4c-0.1,0.1-0.1,0.2-0.2,0.2c-0.1,0.2-0.2,0.4-0.3,0.6
	s-0.3,0.5-0.4,0.7c-0.3,0.5-0.5,1.1-0.7,1.6c-0.1,0.1-0.1,0.3-0.2,0.4c-0.1,0.2-0.1,0.3-0.2,0.5c-0.1,0.2-0.2,0.5-0.2,0.7
	c0,0.1-0.1,0.3-0.1,0.4s-0.1,0.3-0.1,0.4c-0.1,0.2-0.1,0.4-0.2,0.7c0,0.1-0.1,0.2-0.1,0.4c0,0.2-0.1,0.4-0.1,0.6
	c0,0.1,0,0.2-0.1,0.4c0,0.2-0.1,0.4-0.1,0.6v0.1c0,0.2-0.1,0.5-0.1,0.8c0,0.2,0,0.3,0,0.5c0,0.1,0,0.2,0,0.3c0,0.3,0,0.5,0,0.8
	c0,0.2,0,0.5,0,0.7l0,0l0,0c0,0.2,0,0.4,0,0.6C193.3-115.8,193.3-115.6,193.3-115.4z"/>
<path class="st0" d="M255.7-127.9l12.6,12.6l4.3,4.3l4,4c4-8.1,2.6-18.2-4.2-25c-0.3-0.3-0.7-0.7-1.1-1c-0.2-0.1-0.3-0.3-0.5-0.4
	c-0.2-0.1-0.4-0.3-0.5-0.4c-0.2-0.2-0.4-0.3-0.7-0.5c-0.2-0.2-0.4-0.3-0.7-0.5c-0.3-0.2-0.6-0.4-0.9-0.6c-0.3-0.2-0.6-0.4-0.9-0.5
	c-0.3-0.2-0.6-0.3-1-0.5c-0.3-0.1-0.6-0.3-1-0.4c-0.3-0.1-0.6-0.2-0.9-0.3h-0.1c-0.2-0.1-0.5-0.2-0.8-0.2c-0.2-0.1-0.5-0.2-0.8-0.2
	c-0.2,0-0.3-0.1-0.5-0.1c-0.1,0-0.2-0.1-0.3-0.1c-0.1,0-0.2,0-0.3-0.1c-0.1,0-0.2-0.1-0.4-0.1c-0.2,0-0.3-0.1-0.5-0.1
	c-0.1,0-0.2,0-0.4-0.1c-0.3,0-0.5-0.1-0.8-0.1s-0.5-0.1-0.8-0.1s-0.6,0-0.9-0.1c-0.2,0-0.5,0-0.8,0c-3.3,0-6.5,0.7-9.5,2.2l4,4
	L255.7-127.9z"/>
<polygon class="st0" points="177.2,92.6 177.1,92.6 161,76.4 157.3,72.8 154.1,69.6 123.8,99.9 127.5,103.6 131.1,107.3 
	154.1,130.3 184.5,99.9 180.8,96.2 "/>
<path class="st1" d="M95.9,84.7L95.9,84.7c0,0.2,0,0.4,0,0.5c0,0.2,0,0.5,0.1,0.7c0,0.5,0.1,0.9,0.2,1.4c0,0.2,0.1,0.5,0.1,0.7
	c0.1,0.4,0.1,0.9,0.2,1.3v0.1c0,0.2,0.1,0.5,0.1,0.7c0.1,0.5,0.2,0.9,0.3,1.4c0.1,0.2,0.1,0.5,0.2,0.7s0.1,0.5,0.2,0.7
	s0.1,0.4,0.2,0.7c0.1,0.5,0.3,0.9,0.4,1.3s0.3,0.8,0.4,1.1c0.1,0.2,0.1,0.4,0.2,0.6v0.1c0.1,0.3,0.3,0.7,0.4,1s0.3,0.6,0.4,0.9
	c0,0.1,0.1,0.2,0.1,0.2l0,0c0.1,0.2,0.2,0.4,0.3,0.6c0.4,0.8,0.8,1.6,1.3,2.4c0.1,0.2,0.2,0.4,0.4,0.6c0.2,0.4,0.5,0.8,0.7,1.1
	c1,1.4,2,2.8,3.2,4.1c0.4,0.5,0.9,0.9,1.3,1.4l2.3,2.3l3.7,3.7l3.7,3.7l3.7,3.7l0,0l34,34l41.4-41.4l6-6c1.7-1.7,3.2-3.6,4.5-5.5
	c4.3-6.3,6.4-13.6,6.4-20.9c0-9.6-3.6-19.2-10.9-26.4c-0.2-0.2-0.5-0.5-0.7-0.7c-0.9-0.9-1.9-1.7-2.9-2.5c-0.2-0.1-0.4-0.3-0.6-0.4
	c-0.3-0.2-0.6-0.4-0.9-0.7c-0.5-0.4-1-0.7-1.6-1c-0.5-0.3-1.1-0.6-1.6-0.9c-0.3-0.2-0.5-0.3-0.8-0.4c-0.3-0.1-0.5-0.3-0.8-0.4
	c-0.2-0.1-0.5-0.2-0.7-0.3c0,0-0.1,0-0.1-0.1c-0.2-0.1-0.4-0.2-0.7-0.3c-0.1,0-0.2-0.1-0.2-0.1c-0.2-0.1-0.4-0.2-0.6-0.2
	c-0.2-0.1-0.5-0.2-0.7-0.3s-0.4-0.2-0.6-0.2h-0.1c-0.1-0.1-0.3-0.1-0.4-0.2c-0.6-0.2-1.2-0.4-1.8-0.6c-0.6-0.2-1.2-0.3-1.7-0.5
	c-0.2-0.1-0.4-0.1-0.7-0.2c-0.2,0-0.4-0.1-0.7-0.1c-0.2,0-0.4-0.1-0.6-0.1c-0.2,0-0.5-0.1-0.7-0.1l0,0c-0.3,0-0.5-0.1-0.8-0.1
	c-0.4-0.1-0.8-0.1-1.2-0.2c-0.3,0-0.6-0.1-1-0.1c-0.3,0-0.7-0.1-1-0.1l0,0c-0.3,0-0.6,0-0.9,0c-0.5,0-0.9,0-1.4,0
	c-3.7,0-7.3,0.5-10.8,1.6c-0.3,0.1-0.7,0.2-1,0.3s-0.7,0.2-1,0.3c-0.5,0.2-1,0.4-1.5,0.6h-0.1c-0.2,0.1-0.5,0.2-0.7,0.3
	c0,0,0,0-0.1,0h-0.1c-0.3,0.1-0.6,0.2-0.8,0.4c-0.2,0.1-0.3,0.2-0.5,0.3c-0.1,0.1-0.3,0.1-0.4,0.2c0,0-0.1,0-0.1,0.1
	c-0.2,0.1-0.4,0.2-0.7,0.4c-0.2,0.1-0.4,0.2-0.7,0.4c0,0-0.1,0-0.1,0.1c-0.4,0.2-0.8,0.5-1.2,0.7s-0.8,0.5-1.2,0.8l0,0
	c-0.2-0.1-0.4-0.3-0.6-0.4c-0.4-0.3-0.8-0.5-1.2-0.7c-0.2-0.1-0.4-0.2-0.6-0.4c-0.4-0.2-0.8-0.5-1.2-0.7c-0.3-0.2-0.7-0.3-1-0.5
	c-0.3-0.1-0.6-0.3-0.9-0.4c-0.1,0-0.2-0.1-0.3-0.1c-0.3-0.1-0.6-0.3-0.9-0.4c-0.2-0.1-0.5-0.2-0.7-0.3h-0.1
	c-0.2-0.1-0.4-0.1-0.5-0.2c-0.2-0.1-0.4-0.2-0.6-0.2h-0.1c-0.3-0.1-0.6-0.2-0.8-0.3c-0.1,0-0.3-0.1-0.4-0.1
	c-0.2-0.1-0.4-0.1-0.7-0.2c-0.2-0.1-0.4-0.1-0.5-0.2c-0.5-0.1-1-0.2-1.5-0.4c-0.2,0-0.4-0.1-0.6-0.1c-0.4-0.1-0.7-0.2-1.1-0.2
	c-0.2,0-0.5-0.1-0.7-0.1c-0.1,0-0.2,0-0.3-0.1c-0.3-0.1-0.7-0.1-1-0.1s-0.5-0.1-0.8-0.1l0,0c-0.1,0-0.1,0-0.2,0c-0.1,0-0.2,0-0.3,0
	c-0.3,0-0.6,0-0.8-0.1c-0.2,0-0.4,0-0.6,0c-0.2,0-0.4,0-0.6,0c-0.3,0-0.6,0-1,0c-0.5,0-0.9,0-1.4,0c-0.3,0-0.6,0-0.9,0l0,0
	c-0.3,0-0.7,0-1,0.1c-0.3,0-0.7,0.1-1,0.1c0,0,0,0-0.1,0c-0.3,0-0.6,0.1-1,0.1h-0.1c-0.3,0-0.6,0.1-0.8,0.1l0,0
	c-0.2,0-0.4,0.1-0.6,0.1c0,0,0,0-0.1,0c-0.2,0-0.4,0.1-0.6,0.1c0,0,0,0-0.1,0c-0.4,0.1-0.8,0.2-1.3,0.3c-0.6,0.1-1.2,0.3-1.7,0.5
	c-0.3,0.1-0.6,0.2-1,0.3c-0.3,0.1-0.5,0.2-0.8,0.3c-0.2,0.1-0.3,0.1-0.4,0.2h-0.1c-0.2,0.1-0.4,0.1-0.6,0.2
	c-0.2,0.1-0.5,0.2-0.7,0.3s-0.4,0.2-0.6,0.2c-0.1,0-0.2,0.1-0.2,0.1c-0.2,0.1-0.4,0.2-0.7,0.3c0,0-0.1,0-0.1,0.1
	c-0.2,0.1-0.5,0.2-0.7,0.3c-0.3,0.1-0.6,0.3-0.8,0.4c-0.3,0.1-0.5,0.3-0.8,0.4c-0.5,0.3-1.1,0.6-1.6,0.9c-0.5,0.3-1,0.7-1.6,1
	c-0.3,0.2-0.6,0.4-0.9,0.7c-0.2,0.1-0.4,0.3-0.6,0.4c-1,0.8-2,1.6-2.9,2.5c-0.2,0.2-0.5,0.4-0.7,0.7c-7.3,7.3-10.9,16.9-10.9,26.4
	c0,0.3,0,0.6,0,1C95.9,83.9,95.9,84.3,95.9,84.7z M111.4,82.5L111.4,82.5c0-0.3,0-0.5,0-0.7c0-0.3,0-0.5,0-0.8c0-0.1,0-0.2,0-0.3
	c0-0.2,0-0.3,0-0.5c0-0.3,0.1-0.5,0.1-0.8v-0.1c0-0.2,0.1-0.4,0.1-0.6c0-0.1,0-0.2,0.1-0.4c0-0.2,0.1-0.4,0.1-0.6
	c0-0.1,0.1-0.2,0.1-0.4c0.1-0.2,0.1-0.4,0.2-0.7c0-0.1,0.1-0.3,0.1-0.4s0.1-0.3,0.1-0.4c0.1-0.2,0.1-0.5,0.2-0.7s0.1-0.3,0.2-0.5
	c0.1-0.1,0.1-0.3,0.2-0.4c0.2-0.5,0.5-1.1,0.7-1.6c0.1-0.2,0.2-0.5,0.4-0.7c0.1-0.2,0.2-0.4,0.3-0.6c0-0.1,0.1-0.2,0.2-0.2
	c0.1-0.1,0.2-0.2,0.2-0.4c0,0,0-0.1,0.1-0.1c0.1-0.1,0.1-0.2,0.2-0.3c0.1-0.2,0.3-0.4,0.4-0.6s0.3-0.4,0.4-0.5l0.1-0.1
	c0.1-0.1,0.2-0.2,0.3-0.3c0.1-0.2,0.3-0.4,0.4-0.5s0.2-0.2,0.3-0.3c0.1-0.1,0.2-0.2,0.3-0.3c0.2-0.2,0.3-0.4,0.5-0.6
	c4.1-4.1,9.6-6.4,15.4-6.4c3.4,0,6.6,0.8,9.5,2.2c2.2,1,4.1,2.5,5.9,4.2l5.5,5.5l5.5-5.5c1.8-1.8,3.7-3.2,5.9-4.2
	c3-1.5,6.3-2.2,9.5-2.2c0.2,0,0.5,0,0.8,0s0.6,0,0.9,0.1c0.3,0,0.5,0,0.8,0.1c0.3,0,0.5,0.1,0.8,0.1c0.1,0,0.2,0,0.4,0.1
	c0.2,0,0.3,0.1,0.5,0.1c0.1,0,0.2,0,0.4,0.1c0.1,0,0.2,0,0.3,0.1c0.1,0,0.2,0.1,0.3,0.1c0.2,0,0.3,0.1,0.5,0.1
	c0.3,0.1,0.5,0.1,0.8,0.2c0.2,0.1,0.5,0.2,0.8,0.2h0.1c0.3,0.1,0.6,0.2,0.9,0.3c0.3,0.1,0.7,0.3,1,0.4c0.3,0.2,0.6,0.3,1,0.5
	c0.3,0.2,0.6,0.3,0.9,0.5c0.3,0.2,0.6,0.4,0.9,0.6c0.2,0.1,0.4,0.3,0.7,0.5c0.2,0.2,0.4,0.3,0.7,0.5c0.2,0.1,0.4,0.3,0.5,0.4
	c0.2,0.1,0.3,0.3,0.5,0.4c0.4,0.3,0.7,0.7,1.1,1c6.7,6.7,8.1,16.8,4.2,25c-1,2.1-2.4,4.1-4.2,5.9l-6,6l-30.4,30.3l-23-23l-3.7-3.7
	l-3.7-3.7l-3.7-3.7l-2.3-2.3c-0.5-0.5-0.9-0.9-1.3-1.4c-1.2-1.4-2.1-2.9-2.9-4.5c-0.2-0.4-0.4-0.8-0.5-1.1c-0.1-0.1-0.1-0.2-0.2-0.4
	c0,0,0,0,0-0.1c-0.1-0.1-0.1-0.3-0.2-0.4l0,0c-0.1-0.2-0.1-0.4-0.2-0.6c0-0.1-0.1-0.2-0.1-0.2c-0.1-0.2-0.1-0.4-0.2-0.6
	s-0.1-0.4-0.2-0.6c-0.1-0.3-0.1-0.5-0.2-0.8c0-0.2-0.1-0.4-0.1-0.6s-0.1-0.3-0.1-0.5s-0.1-0.5-0.1-0.7c0-0.3-0.1-0.7-0.1-1
	c0-0.2,0-0.3,0-0.5s0-0.4,0-0.6C111.4,82.9,111.4,82.7,111.4,82.5L111.4,82.5z"/>
<path class="st2" d="M154.1,224.8l63.7-63.7c6.7-6.7,10.3-15.6,10.3-25c0-9.5-4-18.5-10.7-25.2l-4-4c-1.4,1.9-3,3.7-4.7,5.4
	l-2.1,2.1c-2.2,2.2-2.2,5.7,0,7.9c3.7,3.7,5.8,8.7,5.8,13.9c0,5.3-2,10.2-5.8,13.9l-52.7,52.7l-52.7-52.7c-7.7-7.7-7.7-20.1,0-27.8
	l0.3-0.3c2-2,2-5.3,0-7.4l-2.3-2.3c-1.7-1.7-3.3-3.5-4.7-5.4l-4.3,4.3c-13.7,13.8-13.7,36.1,0,49.9L154.1,224.8z"/>
<text transform="matrix(1 0 0 1 80.1189 266.5024)" class="st2 st3 st4">I’m Down.</text>
</svg>
