<svg width="20" height="21" xmlns="http://www.w3.org/2000/svg" xmlns:xlink="http://www.w3.org/1999/xlink"><defs><path d="M219.000024 155.571427v4.285719H199v-4.285719c1.093751 0 1.674109-.491072 2.131699-.881698.379465-.334821.636161-.546875 1.205359-.546875.569197 0 .814733.212054 1.205358.546875.45759.390626 1.026787.881698 2.131699.881698 1.093751 0 1.662949-.491072 2.131699-.881698.379465-.334821.625001-.546875 1.194198-.546875.569197 0 .825894.212054 1.205359.546875.457589.390626 1.037947.881698 2.131698.881698 1.093752 0 1.67411-.491072 2.131699-.881698.379465-.334821.636162-.546875 1.205359-.546875.558036 0 .814733.212054 1.194198.546875.45759.390626 1.037948.881698 2.131699.881698zm0-3.571433v2.14286c-.569197 0-.814733-.212054-1.205359-.546876-.45759-.390625-1.026787-.881697-2.120538-.881697-1.104912 0-1.674109.491072-2.131699.881697-.390625.334822-.636161.546876-1.205359.546876-.569197 0-.825893-.212054-1.205358-.546876-.45759-.390625-1.026787-.881697-2.131699-.881697-1.093751 0-1.662948.491072-2.131699.881697-.379465.334822-.625001.546876-1.194198.546876-.569197 0-.825894-.212054-1.205358-.546876-.45759-.390625-1.037948-.881697-2.131699-.881697-1.104912 0-1.67411.491072-2.131699.881697-.379465.334822-.636162.546876-1.205359.546876v-2.14286c0-1.183037.959823-2.14286 2.14286-2.14286h.714286v-5.000006h2.857147v5.000006h2.857146v-5.000006h2.857146v5.000006h2.857146v-5.000006h2.857147v5.000006h.714286c1.183037 0 2.14286.959823 2.14286 2.14286zm-14.285731-9.642869c0 1.183038-.636162 1.785717-1.428574 1.785717-.792411 0-1.428573-.636162-1.428573-1.428573 0-1.383931 1.428573-1.026787 1.428573-2.857147.535715 0 1.428574 1.316966 1.428574 2.500003zm5.714292 0c0 1.183038-.636161 1.785717-1.428573 1.785717-.792412 0-1.428573-.636162-1.428573-1.428573 0-1.383931 1.428573-1.026787 1.428573-2.857147.535715 0 1.428573 1.316966 1.428573 2.500003zm5.714293 0c0 1.183038-.636162 1.785717-1.428574 1.785717-.792411 0-1.428573-.636162-1.428573-1.428573 0-1.383931 1.428573-1.026787 1.428573-2.857147.535715 0 1.428574 1.316966 1.428574 2.500003z" id="adsfwgeiadf"/></defs><g transform="translate(-199 -139)" fill="none"><use fill="#000" xlink:href="#adsfwgeiadf"/><use fill="#147A9A" xlink:href="#adsfwgeiadf"/></g></svg>
