<svg id="Layer_1" xmlns="http://www.w3.org/2000/svg" viewBox="0 0 427 427"><style>.st0{fill:#fff}</style><path class="st0" d="M272.4 154.7c-5.5 0-10 4.5-10 10v189c0 5.5 4.5 10 10 10s10-4.5 10-10v-189c0-5.5-4.5-10-10-10zM154.4 154.7c-5.5 0-10 4.5-10 10v189c0 5.5 4.5 10 10 10s10-4.5 10-10v-189c0-5.5-4.5-10-10-10z"/><path class="st0" d="M68.4 127.1v246.4c0 14.6 5.3 28.2 14.7 38.1 9.3 9.8 22.2 15.4 35.7 15.4H308c13.5 0 26.4-5.6 35.7-15.4 9.3-9.8 14.7-23.5 14.7-38.1V127.1c18.5-4.9 30.6-22.8 28.1-41.9-2.5-19-18.7-33.2-37.9-33.2h-51.2V39.5c.1-10.5-4.1-20.6-11.5-28C278.4 4 268.3-.1 257.8 0H169c-10.5-.1-20.6 4-28.1 11.5-7.4 7.4-11.6 17.5-11.5 28V52H78.2C59 52 42.8 66.2 40.3 85.3c-2.5 19 9.6 36.9 28.1 41.8zM308 407H118.8c-17.1 0-30.4-14.7-30.4-33.5V128h250v245.5c0 18.8-13.3 33.5-30.4 33.5zM149.4 39.5c-.1-5.2 2-10.2 5.7-13.9 3.7-3.7 8.7-5.7 13.9-5.6h88.8c5.2-.1 10.2 1.9 13.9 5.6 3.7 3.7 5.7 8.7 5.7 13.9V52h-128V39.5zM78.2 72h270.4c9.9 0 18 8.1 18 18s-8.1 18-18 18H78.2c-9.9 0-18-8.1-18-18s8.1-18 18-18z"/><path class="st0" d="M213.4 154.7c-5.5 0-10 4.5-10 10v189c0 5.5 4.5 10 10 10s10-4.5 10-10v-189c0-5.5-4.5-10-10-10z"/></svg>
