<svg width="20" height="18" xmlns="http://www.w3.org/2000/svg" xmlns:xlink="http://www.w3.org/1999/xlink"><defs><path d="M213.285731 233.357137v-2.142859c0-.200893-.15625-.357144-.357143-.357144h-2.500003v-2.500003c0-.200893-.15625-.357143-.357143-.357143h-2.14286c-.200893 0-.357143.15625-.357143.357143v2.500003h-2.500003c-.200893 0-.357143.156251-.357143.357144v2.142859c0 .200893.15625.357144.357143.357144h2.500003v2.500003c0 .200893.15625.357143.357143.357143h2.14286c.200893 0 .357143-.15625.357143-.357143v-2.500003h2.500003c.200893 0 .357143-.156251.357143-.357144zm-7.142865-8.214295h5.714292v-1.428573h-5.714292v1.428573zm-4.28572 0v14.285731h-.357143c-1.37277 0-2.500003-1.127233-2.500003-2.500003v-9.285728c0-1.372767 1.127233-2.5 2.5-2.5h.357146zm13.214302 0v14.285731h-12.142872v-14.285731h1.785717v-1.785717c0-.591518.479911-1.071429 1.071429-1.071429h6.428579c.591519 0 1.07143.479911 1.07143 1.071429v1.785717h1.785717zm3.928576 2.500003v9.285725c0 1.37277-1.127234 2.500003-2.500003 2.500003h-.357143v-14.285731h.357143c1.372769 0 2.500003 1.127233 2.500003 2.500003z" id="a"/></defs><g transform="translate(-199 -222)" fill-rule="nonzero" fill="none"><use fill="#000" xlink:href="#a"/><use fill="#5BB8B8" xlink:href="#a"/></g></svg>
