<svg width="38" height="31" xmlns="http://www.w3.org/2000/svg"><path d="M26.269531 2.6875c2.622409 0 4.774731.766919 6.457031 2.300781C34.408863 6.522143 35.25 8.624987 35.25 11.296875c0 2.721368-1.014313 5.318998-3.042969 7.792969-1.979176 2.424491-4.45311 4.601553-7.421875 6.53125-1.187506.79167-2.300776 1.447263-3.339844 1.966797-1.039067.519533-1.781247.853515-2.226562 1.001953l-.59375.222656c-1.385424-.346356-3.438788-1.410147-6.160156-3.191406-2.968765-1.929697-5.442699-4.106759-7.421875-6.53125C3.014313 16.615873 2 14.018243 2 11.296875c0-2.671888.841137-4.774732 2.523438-6.308594C6.205738 3.454419 8.35806 2.6875 10.980469 2.6875c1.533862 0 3.005852.346351 4.416015 1.039062 1.410164.692712 2.486325 1.657546 3.228516 2.894532.742191-1.236986 1.818352-2.20182 3.228516-2.894532 1.410163-.692711 2.882153-1.039062 4.416015-1.039062z" fill="#FFF" fill-rule="nonzero" stroke="#147A9A" stroke-width="4"/></svg>
