<?xml version="1.0" encoding="UTF-8"?>
<svg width="28px" height="23px" viewBox="0 0 28 23" version="1.1" xmlns="http://www.w3.org/2000/svg" xmlns:xlink="http://www.w3.org/1999/xlink">
    <!-- Generator: Sketch 54.1 (76490) - https://sketchapp.com -->
    <title></title>
    <desc>Created with Sketch.</desc>
    <defs>
        <path d="M353.428585,750.285712 C353.428585,750.785713 353.660728,752 352.857156,752 L347.142863,752 C344.303574,752 342,749.696426 342,746.857137 L342,734.285693 C342,731.446404 344.303574,729.14283 347.142863,729.14283 L352.857156,729.14283 C353.160728,729.14283 353.428585,729.410687 353.428585,729.714259 C353.428585,730.21426 353.660728,731.428547 352.857156,731.428547 L347.142863,731.428547 C345.571433,731.428547 344.285717,732.714263 344.285717,734.285693 L344.285717,746.857137 C344.285717,748.428567 345.571433,749.714283 347.142863,749.714283 L352.285727,749.714283 C352.732156,749.714283 353.428585,749.624997 353.428585,750.285712 Z M370.000033,740.571415 C370.000033,740.874987 369.875033,741.160701 369.660747,741.374987 L359.94645,751.089285 C359.732164,751.303571 359.446449,751.428571 359.142878,751.428571 C358.517877,751.428571 358.000019,750.910713 358.000019,750.285712 L358.000019,745.142849 L350.00001,745.142849 C349.375009,745.142849 348.857151,744.624991 348.857151,743.99999 L348.857151,737.142839 C348.857151,736.517839 349.375009,735.999981 350.00001,735.999981 L358.000019,735.999981 L358.000019,730.857118 C358.000019,730.232117 358.517877,729.714259 359.142878,729.714259 C359.446449,729.714259 359.732164,729.839259 359.94645,730.053545 L369.660747,739.767843 C369.875033,739.982129 370.000033,740.267843 370.000033,740.571415 Z" id="path-1"></path>
    </defs>
    <g id="Homescreen---Discover" stroke="none" stroke-width="1" fill="none" fill-rule="evenodd">
        <g id="Account---Ik-ben" transform="translate(-342.000000, -729.000000)" fill="#FFFFFF" fill-rule="nonzero">
            <g id="">
                <use xlink:href="#path-1"></use>
                <use xlink:href="#path-1"></use>
            </g>
        </g>
    </g>
</svg>