<svg width="22" height="20" xmlns="http://www.w3.org/2000/svg" xmlns:xlink="http://www.w3.org/1999/xlink"><defs><path d="M208.714298 174.357131c1.774556 0 3.21429 1.439734 3.21429 3.21429s-1.439734 3.214289-3.21429 3.214289c-1.774555 0-3.214289-1.439733-3.214289-3.214289s1.439734-3.21429 3.214289-3.21429zm7.857153-4.642862c1.573662 0 2.857146 1.283483 2.857146 2.857146v10.000012c0 1.573662-1.283484 2.857146-2.857146 2.857146h-15.714305c-1.573662 0-2.857146-1.283484-2.857146-2.857146v-10.000012c0-1.573663 1.283484-2.857146 2.857146-2.857146h2.500003l.569197-1.517859c.279019-.736608 1.149555-1.339288 1.930806-1.339288h5.714293c.781251 0 1.651787.60268 1.930806 1.339288l.569197 1.517859h2.500003zm-7.857153 12.857158c2.7567 0 5.000006-2.243306 5.000006-5.000006s-2.243306-5.000006-5.000011-5.000006c-2.756694 0-5 2.243306-5 5 0 2.756706 2.243306 5.000012 5.000005 5.000012z" id="a"/></defs><g transform="translate(-198 -166)" fill-rule="nonzero" fill="none"><use fill="#000" xlink:href="#a"/><use fill="#F6AB2A" xlink:href="#a"/></g></svg>
