<svg width="48" height="48" xmlns="http://www.w3.org/2000/svg"><path d="M47.142913 21.214254v6.428579c0 1.774556-1.439734 3.214289-3.214289 3.214289H30.000036V44.78571c0 1.774556-1.439734 3.21429-3.21429 3.21429h-6.428579c-1.774556 0-3.214289-1.439734-3.214289-3.21429V30.857122H3.21429C1.439734 30.857122 0 29.417389 0 27.642833v-6.428579c0-1.774556 1.439734-3.21429 3.21429-3.21429h13.928588V4.071376c0-1.774555 1.439733-3.214289 3.214289-3.214289h6.428579c1.774556 0 3.21429 1.439734 3.21429 3.214289v13.928588h13.928588c1.774555 0 3.214289 1.439734 3.214289 3.21429z" fill="#147A9A" fill-rule="nonzero"/></svg>
