<svg width="40" height="37" xmlns="http://www.w3.org/2000/svg" xmlns:xlink="http://www.w3.org/1999/xlink"><defs><path d="M75.6015625 749.023438h-.859375c-.2864598 0-.5664049-.006511-.8398437-.019532-.2734389-.013021-.5924461-.045572-.9570313-.097656-.1822926.208334-.579424.559893-1.1914063 1.054688-.6119822.494794-1.3346312 1.015622-2.1679687 1.5625-.8333375.546877-1.712235 1.041664-2.6367187 1.484374-.9244838.442711-1.7903606.729167-2.5976563.859376H64.3125l-.078125.019531c-.0520836.013021-.1041664.019531-.15625.019531-.260418 0-.4752596-.091145-.6445312-.273438-.1692717-.182292-.2539063-.403644-.2539063-.664062 0-.078125.0065104-.143229.0195313-.195312.0130208-.052084.0325519-.104167.0585937-.15625H63.21875c.3125016-.520836.7486951-1.32161 1.3085938-2.402344.5598986-1.080735.8398437-2.076819.8398437-2.988282v-.078124c-1.0677137-.546878-2.0052043-1.223955-2.8125-2.03125-.8072957-.807296-1.4713516-1.692704-1.9921875-2.65625-.5208359-.963547-.911457-1.979162-1.171875-3.046876C59.130207 738.346349 59 737.291672 59 736.25c0-1.692717.4231729-3.281243 1.2695312-4.765625.8463584-1.484382 2.0117114-2.773432 3.4960938-3.867187 1.4843824-1.093756 3.2161359-1.959633 5.1953125-2.597657 1.9791766-.638024 4.1015512-.957031 6.3671875-.957031 2.2395945 0 4.3424381.319007 6.3085938.957031 1.9661556.638024 3.6783781 1.503901 5.1367187 2.597657 1.4583406 1.093755 2.6106729 2.382805 3.4570313 3.867187C91.0768271 732.968757 91.5 734.557283 91.5 736.25c.0260418 1.901051-.3645793 3.639315-1.171875 5.214844-.8072957 1.575528-1.9270762 2.923171-3.359375 4.042968-1.4322988 1.119798-3.1249902 1.985675-5.078125 2.597657-1.9531348.611982-4.049468.917969-6.2890625.917969zm-3.671875-2.695313l1.3671875.117187c.5989613.078126 1.1458309.117188 1.640625.117188h.7421875c1.9010512 0 3.6653564-.253904 5.2929687-.761719 1.6276124-.507815 3.0338483-1.223953 4.21875-2.148437 1.1849018-.924484 2.1158821-2.018223 2.7929688-3.28125C88.6614617 739.108067 89 737.734382 89 736.25c0-1.354173-.3580693-2.617182-1.0742188-3.789062-.7161494-1.171881-1.6861917-2.194007-2.9101562-3.066407-1.2239645-.8724-2.6692625-1.562497-4.3359375-2.070312-1.666675-.507815-3.4505113-.761719-5.3515625-.761719s-3.6913979.253904-5.3710938.761719c-1.6796958.507815-3.1510353 1.197912-4.4140624 2.070312-1.2630272.8724-2.2526006 1.894526-2.96875 3.066407C61.8580693 733.632818 61.5 734.895827 61.5 736.25c0 1.614591.4036418 3.242179 1.2109375 4.882812.8072957 1.640634 2.0703039 2.903642 3.7890625 3.789063l1.3671875.703125L67.75 747.148438l-.078125.683593c-.0520836.455732-.299477 1.282546-.7421875 2.480469.7031285-.416669 1.3997361-.904945 2.0898437-1.464844.6901077-.559898 1.1263012-.95703 1.3085938-1.191406l1.6015625-1.328125zm27.0703125 0c0 1.822926-.4427039 3.430983-1.328125 4.824219-.8854211 1.393236-2.2525949 2.558589-4.1015625 3.496094v.078124c0 .807296.1562484 1.744787.46875 2.8125.3125016 1.067714.598957 1.822915.859375 2.265626.0260418.052083.0455729.104166.0585937.15625.0130209.052083.0195313.104166.0195313.15625 0 .234376-.0781242.429686-.234375.585937-.1562508.156251-.3515613.234375-.5859375.234375h-.234375c-1.3802152-.234376-2.7734305-.937494-4.1796875-2.109375s-2.2526027-1.940102-2.5390625-2.304687c-.3125016.026041-.5859363.045572-.8203125.058593-.2343762.013021-.4817695.019531-.7421875.019531h-.7421875c-1.276048 0-2.4804631-.110675-3.6132813-.332031-1.1328181-.221355-2.1940054-.546873-3.1835937-.976562-.9895883-.42969-1.8880168-.950518-2.6953125-1.5625-.8072957-.611982-1.5234344-1.295569-2.1484375-2.050781.0520836-.052084.7356705-.078126 2.0507813-.078126 1.3151107 0 1.8294285.013021 1.5429687.039063 1.0677137.833337 2.2525977 1.451821 3.5546875 1.855469s2.7994707.605468 4.4921875.605468h.7617187c.5078151 0 .8919258-.026041 1.1523438-.078124l1.328125-.195313s.240883.325518.7226562.976563c.4817733.651044 1.3346293 1.419266 2.5585938 2.304687-.1041672-.390627-.1822914-1.158848-.234375-2.304687-.0520836-1.14584-.078125-1.71875-.078125-1.71875L92.3203125 752.5c1.4843824-.755212 2.5520801-1.63411 3.203125-2.636719.6510449-1.002609.9765625-2.180983.9765625-3.535156 0-1.093755-.1888002-2.044267-.5664062-2.851563-.3776061-.807295-1.1002551-1.588537-2.1679688-2.34375.130209-.416668.2539057-.859372.3710938-1.328124.117188-.468753.2018226-.924477.2539062-1.367188 1.6406332.963546 2.8190068 2.096348 3.5351562 3.398438C98.6419307 743.138027 99 744.635408 99 746.328125z" id="a"/></defs><g transform="translate(-59 -724)" fill-rule="nonzero" fill="none"><use fill="#000" xlink:href="#a"/><use fill="#FFF" xlink:href="#a"/></g></svg>
