<svg width="21" height="23" xmlns="http://www.w3.org/2000/svg"><path d="M7.42858 9.392843v8.357153c0 .261161-.203125.464286-.464286.464286h-.928573c-.261161 0-.464286-.203125-.464286-.464286V9.392843c0-.261161.203125-.464286.464286-.464286h.928573c.261161 0 .464286.203125.464286.464286zm3.71429 0v8.357153c0 .261161-.203125.464286-.464286.464286h-.928572c-.261161 0-.464287-.203125-.464287-.464286V9.392843c0-.261161.203126-.464286.464287-.464286h.928572c.261161 0 .464286.203125.464286.464286zm3.714291 0v8.357153c0 .261161-.203126.464286-.464287.464286h-.928572c-.261161 0-.464287-.203125-.464287-.464286V9.392843c0-.261161.203126-.464286.464287-.464286h.928572c.261161 0 .464287.203125.464287.464286zm1.857145 10.504477V6.142839H3.71429V19.89732c0 .69643.391742 1.10268.464286 1.10268h12.071443c.072545 0 .464287-.40625.464287-1.10268zM6.964294 4.285694h6.5l-.696422-1.697546c-.043526-.058036-.174107-.14509-.246652-.159599H7.921884c-.087053.014509-.203125.101563-.246652.159599l-.710938 1.697546zm13.464302.464287v.928572c0 .261161-.203125.464286-.464286.464286h-1.392859V19.89732c0 1.595984-1.044644 2.959825-2.321432 2.959825H4.178576c-1.276787 0-2.321431-1.305805-2.321431-2.901789V6.142839H.464286C.203125 6.142839 0 5.939714 0 5.678553v-.928572c0-.261161.203125-.464287.464286-.464287h4.483265L5.963177 1.8627C6.253356 1.151762 7.123892.571404 7.892867.571404h4.642862c.768974 0 1.639511.580358 1.92969 1.291296l1.015626 2.422994h4.483265c.261161 0 .464286.203126.464286.464287z" fill="#FFF" fill-rule="nonzero"/></svg>
