<?xml version="1.0" encoding="UTF-8"?>
<svg width="28px" height="29px" viewBox="0 0 28 29" version="1.1" xmlns="http://www.w3.org/2000/svg" xmlns:xlink="http://www.w3.org/1999/xlink">
    <!-- Generator: Sketch 54.1 (76490) - https://sketchapp.com -->
    <title></title>
    <desc>Created with Sketch.</desc>
    <defs>
        <path d="M360.285736,664.571415 C360.285736,662.053555 358.232162,659.999981 355.714302,659.999981 C353.196442,659.999981 351.142868,662.053555 351.142868,664.571415 C351.142868,667.089275 353.196442,669.142849 355.714302,669.142849 C358.232162,669.142849 360.285736,667.089275 360.285736,664.571415 Z M369.428604,662.624984 L369.428604,666.589274 C369.428604,666.857132 369.214318,667.178561 368.928604,667.232132 L365.625028,667.732133 C365.428599,668.303562 365.214313,668.839277 364.928599,669.357135 C365.535742,670.232136 366.1786,671.017851 366.839315,671.821424 C366.946458,671.946424 367.017887,672.107138 367.017887,672.267853 C367.017887,672.428567 366.964315,672.553567 366.857172,672.678567 C366.428601,673.249997 364.017883,675.875 363.41074,675.875 C363.250025,675.875 363.089311,675.803571 362.946454,675.714285 L360.482165,673.785712 C359.964307,674.053569 359.410735,674.285712 358.857163,674.464284 C358.732163,675.553571 358.62502,676.714287 358.339305,677.785716 C358.267877,678.071431 358.017876,678.285717 357.696447,678.285717 L353.732157,678.285717 C353.410728,678.285717 353.125013,678.053574 353.089299,677.750002 L352.589298,674.464284 C352.035726,674.285712 351.500011,674.071426 350.982154,673.803569 L348.464293,675.714285 C348.339293,675.821428 348.178579,675.875 348.017864,675.875 C347.85715,675.875 347.696435,675.803571 347.571435,675.678571 C346.625006,674.821427 345.375004,673.714283 344.625003,672.678567 C344.535717,672.553567 344.500003,672.41071 344.500003,672.267853 C344.500003,672.107138 344.553574,671.982138 344.64286,671.857138 C345.250004,671.035708 345.910719,670.249993 346.517863,669.410706 C346.214291,668.839277 345.96429,668.249991 345.785719,667.642847 L342.517858,667.160704 C342.214286,667.107132 342,666.821418 342,666.517846 L342,662.553555 C342,662.285698 342.214286,661.964269 342.482143,661.910697 L345.803576,661.410697 C345.982148,660.839268 346.214291,660.303553 346.500005,659.767838 C345.892862,658.910694 345.250004,658.107122 344.589289,657.303549 C344.482146,657.178549 344.410717,657.035692 344.410717,656.874977 C344.410717,656.714263 344.482146,656.589263 344.571432,656.464262 C345.000004,655.874976 347.410721,653.26783 348.017864,653.26783 C348.178579,653.26783 348.339293,653.339259 348.482151,653.446402 L350.946439,655.357118 C351.464297,655.089261 352.017869,654.857118 352.571441,654.678546 C352.696441,653.589259 352.803584,652.428543 353.089299,651.357113 C353.160728,651.071399 353.410728,650.857113 353.732157,650.857113 L357.696447,650.857113 C358.017876,650.857113 358.303591,651.089256 358.339305,651.392828 L358.839306,654.678546 C359.392878,654.857118 359.928593,655.071404 360.446451,655.339261 L362.982168,653.428545 C363.089311,653.321402 363.250025,653.26783 363.41074,653.26783 C363.571454,653.26783 363.732169,653.339259 363.857169,653.446402 C364.803599,654.321403 366.0536,655.428547 366.803601,656.48212 C366.892887,656.589263 366.928601,656.73212 366.928601,656.874977 C366.928601,657.035692 366.87503,657.160692 366.785744,657.285692 C366.1786,658.107122 365.517885,658.892837 364.910742,659.732123 C365.214313,660.303553 365.464314,660.892839 365.642885,661.482126 L368.910746,661.982126 C369.214318,662.035698 369.428604,662.321412 369.428604,662.624984 Z" id="path-1"></path>
    </defs>
    <g id="Homescreen---Discover" stroke="none" stroke-width="1" fill="none" fill-rule="evenodd">
        <g id="Account---Ik-ben" transform="translate(-342.000000, -650.000000)" fill="#FFFFFF" fill-rule="nonzero">
            <g id="">
                <use xlink:href="#path-1"></use>
                <use xlink:href="#path-1"></use>
            </g>
        </g>
    </g>
</svg>