<svg width="23" height="29" xmlns="http://www.w3.org/2000/svg" xmlns:xlink="http://www.w3.org/1999/xlink"><defs><path d="M367.85717 593.553569c0 2.607145-1.714288 4.732148-3.803576 4.732148h-15.250018c-2.089288 0-3.803576-2.125003-3.803576-4.732148 0-4.696435 1.160716-10.125013 5.839293-10.125013 1.44643 1.410716 3.410718 2.285717 5.589292 2.285717 2.178574 0 4.142862-.875001 5.589292-2.285717 4.678577 0 5.839293 5.428578 5.839293 10.125013zm-4.571434-15.839305c0 3.785719-3.071432 6.857151-6.857151 6.857151s-6.857151-3.071432-6.857151-6.857151 3.071432-6.857151 6.857151-6.857151 6.857151 3.071432 6.857151 6.857151z" id="a"/></defs><g transform="translate(-345 -570)" fill="#FFF" fill-rule="nonzero"><use xlink:href="#a"/><use xlink:href="#a"/></g></svg>
